<svg xmlns="http://www.w3.org/2000/svg" viewBox="0 0 142 68" width="300" height="144">
	<style>
		tspan { white-space:pre }
		.shp0 { fill: #df146e } 
		.shp1 { fill: #221f1f } 
		.shp2 { fill: #ffffff } 
	</style>
	<g id="Layer">
		<path id="Layer" fill-rule="evenodd" class="shp0" d="M17 24.3C17.3 24.32 17.6 24.38 17.92 24.38C18.22 24.38 18.49 24.32 18.83 24.3L18.83 34.11C19.8 32.47 21.01 31.38 22.8 31.38C26.03 31.38 27.43 34.59 27.43 37.53C27.43 41.06 25.55 44.43 22.25 44.43C20.37 44.43 19.41 43.26 18.99 42.54C18.44 43.02 17.96 43.6 17.43 44.13L17 44.13L17 24.3ZM21.99 43.58C24.59 43.58 25.41 40.11 25.41 37.64C25.41 34.77 24.47 32.52 22.23 32.49C19.61 32.47 18.79 35.57 18.79 38.72C18.79 41.59 20 43.58 21.99 43.58Z" />
		<path id="Layer" fill-rule="evenodd" class="shp1" d="M35.87 30.64L33.92 33.15C35.75 35.83 37.65 38.45 39.49 41.16L41.34 44.07L41.34 44.21C40.88 44.19 40.47 44.13 40.08 44.13C39.65 44.13 39.21 44.19 38.8 44.21C38.29 43.28 37.79 42.41 37.21 41.56L32.21 34.14C32.1 34.02 31.83 33.94 31.83 34.05L31.83 44.21C31.46 44.18 31.14 44.13 30.82 44.13C30.48 44.13 30.13 44.18 29.81 44.21L29.81 24.3C30.13 24.32 30.48 24.39 30.82 24.39C31.14 24.39 31.46 24.32 31.83 24.3L31.83 33.29C31.85 33.47 32.17 33.35 32.4 33.12C32.82 32.71 33.29 32.1 33.61 31.7L39.26 24.3C39.55 24.32 39.85 24.38 40.17 24.38C40.45 24.38 40.74 24.32 41.07 24.3L35.87 30.64ZM51.04 41.98C51.04 43.02 50.97 43.55 52.32 43.21L52.32 43.79C52.16 43.87 51.89 44 51.64 44.05C50.45 44.29 49.46 44.08 49.27 42.52L49.07 42.75C48.11 43.87 47.05 44.43 45.67 44.43C44.05 44.43 42.63 43.15 42.63 41.19C42.63 38.17 44.71 37.77 46.87 37.37C48.68 37.02 49.3 36.87 49.3 35.59C49.3 33.63 48.34 32.49 46.62 32.49C44.94 32.49 44.05 33.74 43.89 34.32L43.64 34.32L43.64 32.84C44.74 31.96 45.98 31.38 47.33 31.38C49.74 31.38 51.04 32.84 51.04 35.83L51.04 41.98ZM49.2 37.61L48.4 37.8C46.85 38.14 44.5 38.41 44.5 40.82C44.5 42.49 45.36 43.31 46.75 43.31C47.37 43.31 48.15 42.81 48.58 42.3C48.75 42.12 49.21 41.66 49.21 41.48L49.21 37.61L49.2 37.61ZM55.12 41.64C55.67 42.68 56.68 43.6 57.75 43.6C58.88 43.6 60 42.59 60 41.19C60 37.61 54.59 39.94 54.59 35.3C54.59 32.76 56.27 31.38 58.33 31.38C59.52 31.38 60.51 31.77 60.92 32.07C60.69 32.68 60.51 33.31 60.37 33.95L60.16 33.95C59.87 33.08 59.06 32.2 58.21 32.2C57.07 32.2 56.13 32.97 56.13 34.4C56.13 37.8 61.54 35.99 61.54 40.23C61.54 43.07 59.34 44.43 57.32 44.43C56.38 44.43 55.26 44.13 54.45 43.58C54.64 42.94 54.85 42.31 54.94 41.64L55.12 41.64ZM64.64 24.3L64.64 24.3C64.64 24.3 64.64 24.3 64.63 24.3L64.64 24.3ZM65.55 24.38C65.85 24.38 66.13 24.32 66.47 24.3L66.47 33.95C67.27 32.33 68.53 31.38 70.16 31.38C72.82 31.38 73.85 33.21 73.85 36.55L73.85 44.21C73.5 44.19 73.23 44.13 72.93 44.13C72.61 44.13 72.31 44.19 72.01 44.21L72.01 37.16C72.01 34.21 71.42 32.75 69.47 32.75C67.41 32.75 66.47 34.24 66.47 36.99L66.47 44.21C66.13 44.19 65.85 44.13 65.55 44.13C65.23 44.13 64.93 44.19 64.64 44.21L64.64 24.3C64.93 24.32 65.23 24.38 65.55 24.38Z" />
		<path id="Layer" class="shp0" d="M122.81 56.29L82.69 56.29C81.49 56.29 80.5 55.31 80.5 54.11L80.5 14.19C80.5 12.98 81.48 12 82.69 12L122.81 12C124.02 12 125 12.98 125 14.19L125 54.11C125 55.31 124.02 56.29 122.81 56.29" />
		<path id="Layer" fill-rule="evenodd" class="shp2" d="M100.2 42.33L98.29 34.01L112.4 36.25L100.2 42.33ZM98.25 33.27L101.88 20.16L112.97 35.57L98.25 33.27ZM97.57 33.09L85.94 18.24L101.17 20.06L97.57 33.09ZM91.93 26.93L85.48 20.85L87.17 20.85L91.93 26.93ZM116.43 28.08L113.7 35.49L109.28 29.37L116.43 28.08ZM113.08 36.57L112.63 37.93L101.92 42.23L113.08 36.57ZM92.99 50.05L97.58 33.95L99.9 44.43L92.99 50.05ZM120.02 31.12L115.96 31.19L117.09 28.14L120.02 31.12Z" />
	</g>
</svg>