<svg xmlns="http://www.w3.org/2000/svg" viewBox="0 0 390 197" width="300" height="152">
	<style>
		tspan { white-space:pre }
		.shp0 { fill: #eb2329 } 
		.shp1 { fill: #f89621 } 
	</style>
	<g id="g1438">
		<g id="g1406">
			<g id="g1390">
				<path id="path1386" class="shp0" d="M238.56 83.86L186.15 83.86C185.11 83.86 184.59 84.63 184.59 85.41L184.59 89.56C184.59 90.6 185.37 91.12 186.15 91.12L225.33 91.12L225.33 112.92C224.29 111.36 223 109.8 221.7 108.25C217.03 103.58 212.1 101.24 206.91 101.24C202.76 101.24 199.38 103.32 196.53 106.95C194.19 110.06 192.9 113.69 192.9 117.07C192.9 120.44 193.42 124.85 196.01 129C199.12 133.93 204.31 135.49 208.98 135.49C214.95 135.49 219.88 131.34 219.88 125.89C219.88 122.78 218.33 120.18 215.47 118.37L212.62 116.81L212.62 121.48C212.36 122.78 210.28 124.59 207.95 124.59C205.87 124.59 204.05 123.81 202.76 122.52C201.98 121.74 201.46 120.18 201.72 119.14C201.72 117.59 202.24 116.29 203.28 114.99C204.57 113.44 205.87 112.66 207.95 112.66C213.14 112.66 217.55 114.99 221.18 120.18C224.03 124.59 225.59 128.74 225.59 133.41L225.59 144.31L233.37 148.98C233.63 149.24 233.89 149.24 234.15 149.24C235.19 149.24 235.71 148.46 235.71 147.69L235.71 91.38L238.82 91.38C239.86 91.38 240.38 90.6 240.38 89.82L240.38 85.67C240.38 84.63 239.6 83.86 238.56 83.86L238.56 83.86Z" />
				<path id="path1388" class="shp0" d="M343.39 83.86L276.97 83.86C275.93 83.86 275.41 84.63 275.41 85.41L275.41 92.68C268.92 85.93 263.21 82.56 258.02 82.56C253.09 82.56 248.94 83.6 245.31 86.45C241.94 89.04 239.86 92.42 239.86 96.31C239.86 107.99 252.84 107.73 256.21 106.17C256.73 105.91 257.51 105.39 258.28 105.39C260.88 105.39 261.92 107.47 261.92 109.28C261.92 111.88 258.02 114.21 253.35 114.21C250.76 114.21 249.2 113.44 248.16 111.88L246.09 108.76L244.79 112.4C244.53 113.18 244.01 114.21 244.01 115.51C244.01 118.11 245.31 120.7 247.91 123.04C250.24 125.11 253.09 126.15 256.21 126.15C261.14 126.15 265.29 124.33 267.88 120.7C270.22 117.85 271.26 114.47 271.26 110.58C271.26 108.51 270.48 106.17 268.66 103.58C266.59 100.46 263.99 98.9 261.14 98.9C260.1 98.9 258.8 99.16 257.51 99.68C256.99 99.94 255.95 100.2 255.69 100.2C255.17 100.2 254.39 99.94 253.87 99.16C253.35 98.65 252.84 97.87 252.84 96.57C252.84 93.72 255.43 90.86 260.1 90.86L260.36 90.86C263.47 90.86 266.59 92.42 269.44 95.27C271.78 97.61 273.59 99.94 275.15 102.54L275.15 143.79L282.93 148.46C283.19 148.72 283.45 148.72 283.71 148.72C284.75 148.72 285.27 147.94 285.27 147.17L285.27 91.38L297.21 91.38L297.21 127.45L306.55 131.34L307.06 131.34C307.84 131.34 308.62 130.82 308.62 129.78L308.62 129.52C310.18 118.88 314.85 111.62 322.63 107.21L322.63 109.28C322.63 110.84 322.63 114.73 322.89 116.81C322.89 118.11 322.89 118.88 323.15 119.66C323.15 123.81 323.67 130.04 324.97 134.71C327.56 143.53 331.97 145.61 335.09 145.61L335.35 145.61C337.16 145.61 338.72 145.09 339.76 144.05C340.28 143.53 341.06 142.5 341.06 140.68C341.06 139.12 340.8 137.83 340.28 136.79L339.5 135.49L337.94 135.75C336.39 136.27 335.61 136.27 335.61 136.01L335.35 136.01C334.83 136.01 334.83 136.01 334.57 135.75C334.05 135.49 333.01 134.71 332.23 131.86C331.71 129.78 331.46 126.93 331.46 125.37C331.46 113.69 333.79 104.87 337.68 103.06L337.94 103.06C338.46 102.8 338.98 102.28 338.98 101.5C338.98 101.24 338.98 100.98 338.72 100.72L338.72 100.46C336.9 96.83 333.01 94.23 327.82 92.94L326.78 92.94C322.63 93.72 317.7 96.57 311.48 101.76C309.92 103.06 308.36 104.35 307.06 105.65L307.06 91.38L343.39 91.38C344.43 91.38 344.95 90.6 344.95 89.82L344.95 85.67C345.21 84.63 344.43 83.86 343.39 83.86L343.39 83.86Z" />
			</g>
			<path id="path1392" class="shp0" d="M167.47 103.06C167.47 104.87 167.47 106.43 167.21 107.99C166.69 115.25 164.87 122 162.02 128.22C160.98 130.82 159.68 133.15 158.13 135.49C147.23 152.62 128.03 164.03 106.23 164.03C96.89 164.03 88.07 161.96 80.29 158.32C59.53 148.72 45 127.45 45 103.06C45 78.93 59.01 58.17 78.99 48.31C77.43 50.38 75.88 52.46 74.58 54.79C74.58 55.05 74.32 55.05 74.32 55.31C73.54 56.09 72.76 56.61 71.98 57.39C70.95 58.17 70.17 59.21 69.13 59.98L68.61 60.5L68.09 61.02C67.83 61.28 67.57 61.8 67.05 62.06C66.53 62.84 65.76 63.62 65.24 64.39C62.64 67.77 60.57 71.4 59.01 75.29C58.75 75.55 58.75 76.07 58.49 76.33C58.23 76.85 58.23 77.37 57.97 77.63C57.97 77.89 57.71 78.15 57.71 78.41C57.45 79.18 57.19 79.7 56.93 80.48C56.67 81 56.67 81.52 56.41 81.78C56.41 82.04 56.16 82.3 56.16 82.56C56.16 83.08 55.9 83.6 55.9 84.11L55.12 88.79C55.12 89.3 55.12 89.56 54.86 90.08L54.86 96.31C54.86 112.92 62.38 127.97 74.58 137.57C83.92 145.09 95.6 149.76 108.31 149.76C119.99 149.76 130.62 146.13 139.45 139.64C145.93 134.97 151.12 129 155.01 122C155.53 120.96 156.05 120.18 156.57 119.14C159.68 112.66 161.5 105.65 161.5 98.13L161.5 96.31C161.5 94.49 161.5 92.94 161.24 91.12L161.5 91.38C162.28 92.16 163.06 92.68 163.84 93.46C164.61 92.16 165.39 91.12 166.17 89.82C166.69 92.16 166.95 94.49 167.21 97.09C167.47 99.42 167.47 101.24 167.47 103.06L167.47 103.06Z" />
			<path id="path1394" class="shp1" d="M113.5 54.02L102.08 33C83.14 41.56 70.17 60.5 70.17 82.56C70.17 93.72 73.54 104.09 79.25 112.66C78.73 109.8 78.73 106.95 78.73 103.83C78.99 81.26 93.26 62.06 113.5 54.02L113.5 54.02Z" />
			<path id="path1396" class="shp0" d="M122.58 64.39C127.25 63.1 132.44 62.58 137.37 62.58C140.48 62.58 143.86 62.84 146.71 63.36L146.45 54.02L145.93 35.33C143.86 35.07 141.52 34.82 139.19 34.82C128.81 34.82 119.21 38.19 111.42 43.64L117.65 55.05C106.49 58.95 97.41 66.73 91.7 76.85C88.85 81.78 86.77 87.49 85.99 93.46C87.55 90.34 89.37 87.49 91.44 84.89C98.97 75.03 109.87 67.51 122.58 64.39L122.58 64.39Z" />
			<path id="path1398" class="shp1" d="M149.82 53.76L150.34 66.99C145.93 65.69 141.52 64.91 136.59 64.91C127.51 64.91 118.95 67.51 111.42 71.92C102.08 77.63 94.82 86.71 91.18 97.35C94.82 92.42 99.23 88.01 104.42 84.63C111.94 79.7 121.02 76.85 130.62 76.85C137.89 76.85 144.64 78.41 150.86 81.26C155.53 83.34 159.68 86.19 163.32 89.82L170.58 78.93L179.92 64.65C171.62 57.91 161.24 53.76 149.82 53.76L149.82 53.76Z" />
			<path id="path1400" class="shp1" d="M161.5 96.83L161.5 98.65C161.5 109.54 157.09 118.62 156.57 119.66C156.05 120.7 155.53 121.48 155.01 122.52C151.12 129.52 145.93 135.49 139.45 140.16C130.62 146.39 119.99 150.28 108.31 150.28C95.6 150.28 83.66 145.87 74.58 138.08C62.64 128.22 54.86 113.44 54.86 96.83L54.86 90.6C54.86 90.08 54.86 89.82 55.12 89.3L55.9 84.63C55.9 84.11 56.16 83.6 56.16 83.08C56.16 82.82 56.41 82.56 56.41 82.3C56.67 81.78 56.67 81.26 56.93 81C57.19 80.22 57.45 79.44 57.71 78.93C57.71 78.67 57.97 78.41 57.97 78.15C58.23 77.63 58.23 77.11 58.49 76.85C58.75 76.59 58.75 76.07 59.01 75.81C60.57 71.92 62.9 68.29 65.24 64.91C65.76 64.14 66.53 63.36 67.05 62.58C67.31 62.32 67.57 61.8 68.09 61.54C68.35 61.28 68.35 61.02 68.61 61.02C68.87 60.76 68.87 60.5 69.13 60.5C69.91 59.46 70.95 58.69 71.98 57.91C72.76 57.13 73.54 56.61 74.32 55.83C74.32 56.09 74.06 56.09 74.06 56.35C74.06 56.61 73.8 56.87 73.8 56.87C70.69 63.1 68.61 70.62 67.83 78.41C67.57 80.48 67.57 82.56 67.57 84.89C67.57 112.92 83.92 135.49 104.16 135.49L106.23 135.49C109.09 135.49 111.94 134.97 114.8 134.45C128.55 130.82 138.67 118.11 138.67 103.32L138.67 102.54C138.41 93.72 134.78 85.67 128.81 80.22C132.96 80.22 137.11 81 141 82.04C148.53 83.86 155.27 87.49 161.24 92.16L161.5 92.42C161.24 93.46 161.5 95.27 161.5 96.83L161.5 96.83Z" />
			<g id="g1404">
				<path id="path1402" class="shp1" d="M161.5 96.83L161.5 98.65C161.5 110.06 156.31 119.92 156.31 119.92C155.79 120.96 155.27 121.74 154.75 122.78C150.86 129.78 145.41 135.75 138.93 140.42C129.85 147.17 118.95 150.54 107.53 150.54C95.08 150.54 83.14 146.13 73.54 138.34C61.09 128.22 53.82 112.92 53.82 96.83C53.82 80.74 61.09 65.43 73.54 55.31L74.06 54.79C74.06 55.05 73.8 55.05 73.8 55.31C73.8 55.57 73.54 55.57 73.54 55.83C61.34 65.95 54.34 80.74 54.34 96.83C54.34 112.92 61.34 127.71 73.8 138.08C83.14 145.87 95.34 150.02 107.53 150.02C118.69 150.02 129.59 146.65 138.67 139.9C145.15 135.23 150.34 129.26 154.24 122.26C154.75 121.22 155.27 120.44 155.53 119.4C155.53 119.4 160.72 109.8 160.72 98.39L160.72 96.57C160.72 94.75 160.72 93.2 160.46 91.38L160.46 91.12L160.72 91.38L160.98 91.64C161.5 93.72 161.5 95.27 161.5 96.83L161.5 96.83Z" />
			</g>
		</g>
	</g>
</svg>